<svg width="125" height="24" viewBox="0 0 125 24" fill="none" xmlns="http://www.w3.org/2000/svg">
<g clip-path="url(#clip0_1_25)">
<path d="M21.3233 0V13.3318C21.3233 21.0448 17.2102 24.0035 10.6634 24.0035C4.11662 24.0035 0 21.0448 0 13.3318V0H5.8729V11.8524C5.8729 16.9054 7.7514 18.8275 10.6599 18.8275C13.5684 18.8275 15.4469 16.9054 15.4469 11.8524V0H21.3198H21.3233Z" fill="white"/>
<path d="M48.6593 0V24H42.6956L30.5622 9.09048V24H24.5985V0H30.5622L42.6956 15.0606V0H48.6593Z" fill="white"/>
<path d="M99.6753 6.41288C97.6292 5.71713 94.5706 5.25329 92.2626 5.25329C90.4155 5.25329 87.4162 5.54495 87.4162 6.90835C87.4162 9.46296 100.105 9.11508 100.105 17.7031C100.105 22.0568 96.6725 24 91.4525 24C88.0796 24 84.3576 23.1883 81.7354 22.4328V17.2673C82.8597 17.5871 86.5224 18.9505 90.241 18.9505C92.7794 18.9505 94.3366 18.311 94.3366 17.2392C94.3366 14.0486 81.4456 14.6284 81.4456 6.93646C81.4456 2.64246 85.3981 0 91.4246 0C94.2214 0 97.9993 0.523573 99.6718 1.19122V6.4164L99.6753 6.41288Z" fill="white"/>
<path d="M125 8.70044C125 15.3593 119.633 17.19 114.148 17.19H109.347V24H103.383V0H113.848C119.036 0 124.997 1.56018 124.997 8.70044H125ZM118.977 8.73206C118.977 6.72211 117.696 5.40088 114.445 5.40088H109.347V11.7927H114.445C117.696 11.7927 118.977 10.5031 118.977 8.73206Z" fill="white"/>
<path d="M78.1704 24H78.1635C75.8939 23.5362 73.5859 23.1918 71.2361 22.9704L69.3436 15.3417C69.9337 15.1695 70.5168 14.9868 71.0999 14.7865C72.088 14.4492 73.2473 14.1294 74.1795 13.5426L78.1704 24.0035V24Z" fill="white"/>
<path d="M60.1571 17.7909L58.8722 22.9704C56.5224 23.1918 54.2109 23.5362 51.9449 24H51.9379L52.7968 21.7476C53.7814 20.3034 55.2863 19.4179 56.8925 18.8064C57.9504 18.4023 59.0468 18.0826 60.1536 17.7944" fill="white"/>
<path d="M54.0852 16.5892C53.6383 14.9411 55.2584 13.8343 56.5364 13.2791C58.0413 12.6255 59.6823 12.2354 61.271 11.8594C62.8806 11.4799 64.4868 11.1391 66.0929 10.7526C67.6537 10.3801 69.2249 10.0146 70.7473 9.49809C72.3255 8.96047 73.97 8.17686 74.6125 6.52181C75.1746 8.08199 74.2075 9.48404 72.8911 10.222C71.4177 11.0477 69.6544 11.4378 68.0343 11.8559C66.3723 12.2846 64.7033 12.7028 63.0343 13.1034C61.3723 13.504 59.7801 13.8413 58.0762 14.3859C56.7005 14.8252 55.0664 15.4436 54.0887 16.5892" fill="white"/>
<path d="M73.0237 7.11215C72.507 7.63924 71.8052 7.98009 71.1278 8.24363C69.4867 8.88316 67.7968 9.36105 66.0859 9.76867C63.0307 10.5066 62.3568 10.4714 58.9036 11.4764C56.8156 12.0843 55.9358 12.6676 55.5203 13.0471C55.4784 12.1265 56.1208 11.4905 56.8715 11.0583L61.0929 0H64.5635L62.2277 9.42079C64.0084 9.02372 65.8066 8.65124 67.5698 8.16984L65.5447 0H69.0154L71.5992 6.77482C72.4022 6.37423 73.1145 5.8366 73.5126 5.00029C73.8233 5.7101 73.5405 6.58507 73.0203 7.11215" fill="white"/>
<path d="M52.8247 20.7145C52.4721 18.4726 54.5007 16.9054 56.2814 16.0796C58.345 15.1239 60.6041 14.6917 62.8038 14.1611C65.1467 13.5988 67.493 13.0155 69.8115 12.3584C72.0077 11.7365 74.6962 10.9704 75.6948 8.68287C76.1592 9.73353 75.7472 11.0618 74.986 11.8594C74.0014 12.8925 72.4057 13.3037 71.1034 13.7499C69.2912 14.3719 67.4267 14.8428 65.5761 15.3452C64.5147 15.6334 63.4532 15.911 62.3883 16.1886C60.5622 16.6665 58.6907 17.0917 56.9274 17.7663C55.3212 18.3813 53.8129 19.2632 52.8282 20.711" fill="white"/>
</g>
<defs>
<clipPath id="clip0_1_25">
<rect width="125" height="24" fill="white"/>
</clipPath>
</defs>
</svg>
